<?xml version="1.0" standalone="no"?>
<!DOCTYPE svg PUBLIC "-//W3C//DTD SVG 20010904//EN"
 "http://www.w3.org/TR/2001/REC-SVG-20010904/DTD/svg10.dtd">
<svg version="1.0" xmlns="http://www.w3.org/2000/svg"
 width="700.000000pt" height="700.000000pt" viewBox="0 0 700.000000 700.000000"
 preserveAspectRatio="xMidYMid meet">
<metadata>
Created by potrace 1.11, written by Peter Selinger 2001-2013
</metadata>
<g transform="translate(0.000000,700.000000) scale(0.100000,-0.100000)"
fill="#000000" stroke="none">
<path d="M3271 6989 c-273 -51 -523 -235 -970 -714 -168 -180 -531 -552 -811
-832 -235 -235 -386 -382 -689 -672 -93 -88 -277 -258 -397 -366 -225 -203
-222 -200 -230 -230 -3 -14 1 -38 10 -56 9 -18 16 -40 16 -50 0 -10 12 -32 27
-49 l27 -32 115 6 c64 4 132 9 151 11 19 2 82 6 140 10 58 4 120 8 138 10 18
1 34 0 36 -4 3 -4 -4 -43 -14 -87 -11 -44 -22 -102 -25 -130 -4 -27 -8 -60
-11 -74 -19 -112 -29 -339 -27 -616 3 -258 2 -423 -1 -1194 -1 -300 6 -499 19
-550 2 -8 7 -40 10 -70 14 -122 73 -328 103 -362 17 -21 50 -23 73 -5 22 17
54 123 75 247 22 134 22 516 0 650 -3 14 -7 66 -10 115 -4 50 -9 110 -12 135
-38 335 -35 829 11 1415 2 28 7 93 10 145 3 52 8 122 10 155 3 33 7 100 10
150 3 49 8 92 11 94 3 3 24 6 47 7 89 2 404 16 442 19 22 2 135 6 250 10 116
4 269 9 340 11 72 2 527 6 1013 9 809 4 886 3 918 -12 31 -15 37 -15 62 -2 21
12 57 15 172 13 80 -1 476 -5 880 -9 725 -7 1119 -11 1131 -14 4 0 -2 -41 -12
-91 -10 -49 -21 -111 -25 -137 -3 -26 -8 -56 -10 -67 -2 -10 -6 -44 -9 -75 -4
-31 -8 -67 -10 -81 -2 -14 -7 -60 -10 -103 -4 -43 -9 -99 -12 -125 -3 -26 -6
-504 -7 -1062 -2 -893 -6 -1142 -22 -1240 -2 -14 -6 -61 -10 -105 -3 -44 -8
-81 -9 -83 -15 -16 -295 -19 -1345 -12 -228 1 -474 0 -546 -3 l-132 -7 3 33
c3 39 13 113 25 187 5 30 11 82 15 115 3 33 8 80 10 105 20 188 29 400 29 700
1 260 -9 559 -19 623 -2 12 -6 62 -10 110 -3 48 -8 96 -10 106 -2 9 -6 49 -10
87 -3 38 -8 78 -10 89 -2 11 -4 28 -4 37 -1 10 -13 31 -28 48 -25 27 -40 33
-133 50 -58 10 -132 22 -165 25 -33 4 -68 9 -77 11 -137 25 -690 25 -840 -1
-12 -2 -45 -7 -73 -10 -77 -9 -223 -35 -248 -44 -12 -5 -31 -19 -42 -31 -23
-25 -25 -89 -11 -260 13 -154 15 -234 20 -645 5 -375 14 -701 21 -775 2 -19 6
-71 9 -115 13 -163 47 -380 63 -397 20 -22 66 -23 87 -2 9 8 16 18 16 22 1 4
3 225 5 492 2 267 7 568 11 670 8 210 8 202 -1 565 -3 149 -3 275 2 282 5 7
24 15 43 18 19 3 49 8 65 11 102 17 288 26 585 27 279 1 331 -3 413 -31 70
-24 84 -48 93 -157 3 -49 8 -92 9 -95 2 -3 6 -52 10 -110 4 -58 9 -127 11
-155 8 -104 10 -695 3 -810 -12 -198 -40 -477 -60 -605 -15 -97 -22 -144 -22
-157 0 -7 -12 -13 -26 -14 -55 -2 -483 2 -621 6 -80 2 -233 7 -340 10 -107 3
-240 8 -295 10 -538 25 -1190 25 -1584 0 -113 -7 -247 -17 -261 -20 -8 -2 -67
-8 -130 -15 -63 -7 -127 -19 -142 -26 -31 -16 -45 -63 -27 -95 7 -14 12 -79
14 -173 2 -164 15 -232 62 -321 15 -27 35 -66 46 -87 10 -20 35 -47 55 -61 41
-28 147 -63 220 -73 26 -3 50 -8 53 -10 41 -24 808 -24 1069 1 19 2 80 6 135
10 55 4 118 8 140 10 244 21 1451 26 2500 10 325 -5 877 -9 1227 -8 601 1 638
2 674 19 60 30 76 72 69 174 -3 47 -7 101 -10 120 -2 19 -6 62 -10 95 -3 33
-8 78 -10 100 -3 22 -7 65 -10 95 -24 248 -30 257 -192 259 -60 1 -136 2 -170
2 -35 -1 -63 2 -63 7 0 4 9 48 20 97 23 104 51 261 64 360 27 204 32 260 51
500 14 197 24 437 30 805 12 696 19 951 30 1090 3 30 8 102 11 160 4 57 8 112
9 120 2 8 4 17 4 20 1 3 38 5 84 4 107 -1 140 9 173 51 31 42 39 111 17 155
-16 33 -58 70 -79 70 -7 0 -19 10 -25 23 -39 73 -184 232 -299 328 -169 141
-332 250 -730 487 -486 289 -651 404 -905 632 -134 121 -439 436 -575 595
-131 153 -164 190 -265 291 -118 118 -205 185 -303 234 -102 50 -247 70 -361
49z m214 -314 c174 -72 445 -311 790 -700 44 -49 83 -91 88 -93 4 -2 7 -8 7
-13 0 -8 -100 69 -200 156 -20 16 -56 46 -80 65 -109 87 -356 300 -461 398
-114 106 -134 122 -154 120 -13 -2 -21 -12 -23 -28 -2 -21 32 -60 210 -235
118 -116 236 -230 263 -254 28 -24 73 -65 100 -90 67 -62 371 -323 520 -446
160 -133 432 -367 493 -424 15 -14 75 -70 134 -124 58 -54 121 -112 140 -130
227 -211 293 -272 418 -382 80 -70 146 -131 148 -134 1 -4 -29 -7 -66 -8 l-69
-2 -85 82 c-205 197 -410 373 -683 586 -71 56 -137 107 -145 114 -8 7 -105 82
-215 166 -110 85 -218 168 -240 185 -22 17 -42 33 -45 37 -3 3 -84 69 -180
146 -96 78 -188 154 -205 168 -137 120 -201 180 -340 320 -218 218 -444 481
-427 496 12 10 74 30 112 36 19 3 36 6 38 8 9 8 123 -6 157 -20z m-303 -211
c105 -157 233 -324 352 -459 157 -177 479 -489 676 -652 60 -50 238 -198 275
-228 81 -67 289 -226 649 -497 l369 -278 -139 -1 c-77 0 -168 -2 -204 -3 -61
-1 -67 1 -105 34 -22 19 -45 40 -51 45 -147 128 -546 527 -774 775 -38 41
-192 211 -236 259 -27 30 -60 66 -74 81 -14 15 -65 71 -115 126 -346 380 -601
590 -880 727 l-85 42 57 45 c53 42 186 131 189 127 1 -1 44 -65 96 -143z
m-324 -120 c264 -144 550 -392 807 -699 28 -33 52 -62 55 -65 14 -14 162 -194
287 -350 78 -96 150 -184 160 -195 10 -11 62 -72 115 -135 91 -108 279 -305
361 -377 20 -18 74 -63 119 -99 46 -37 86 -69 90 -73 5 -4 -81 -8 -191 -9
l-198 -3 -90 88 c-50 48 -227 221 -393 383 -351 341 -330 321 -739 720 -172
168 -392 382 -489 477 l-177 172 100 101 c55 55 104 100 108 100 5 0 39 -16
75 -36z m-247 -336 c46 -57 91 -112 101 -123 184 -222 248 -298 327 -390 53
-60 100 -115 106 -121 5 -6 42 -46 80 -89 119 -134 456 -477 549 -560 132
-118 264 -229 354 -299 61 -48 112 -88 112 -89 0 -1 -58 -2 -130 -2 l-129 0
-58 56 c-143 139 -226 215 -482 444 -211 188 -309 282 -436 417 -33 35 -73 79
-89 98 -31 38 -109 128 -229 262 -72 81 -221 230 -295 294 l-33 29 77 88 c43
48 80 87 84 87 4 0 45 -46 91 -102z m-271 -145 c31 -101 91 -203 193 -333 59
-74 797 -814 1011 -1013 61 -56 130 -121 155 -144 l46 -43 -97 0 -96 0 -69 63
c-81 73 -227 204 -256 230 -156 135 -607 584 -858 853 -71 76 -199 225 -199
231 0 5 152 191 157 192 1 1 7 -16 13 -36z m-150 -301 c36 -48 68 -91 73 -97
4 -5 49 -64 99 -130 168 -219 331 -408 503 -581 184 -184 261 -254 399 -357
l89 -67 -175 0 c-195 0 -178 -6 -238 80 -26 37 -210 259 -265 319 -18 20 -74
83 -125 141 -51 58 -136 151 -188 208 -53 57 -104 112 -114 124 -10 12 -61 68
-114 124 -128 137 -154 167 -154 177 0 9 131 147 139 147 4 0 35 -40 71 -88z
m-142 -261 c41 -53 113 -147 160 -210 228 -300 440 -555 587 -706 l49 -50 -89
-3 c-88 -3 -88 -3 -124 31 -32 29 -79 68 -146 117 -74 54 -224 226 -340 389
-144 202 -270 373 -318 434 l-32 39 65 59 64 59 26 -32 c14 -18 58 -75 98
-127z m-27 -428 c222 -331 302 -431 407 -514 l34 -26 -144 3 c-169 3 -160 2
-154 12 4 7 -107 153 -222 291 -20 24 -43 54 -51 65 -8 12 -17 23 -20 26 -6 5
-84 96 -141 165 -14 16 -50 57 -81 90 -30 33 -68 74 -83 90 l-27 30 98 92 98
91 48 -66 c27 -37 134 -194 238 -349z m-469 80 c40 -48 78 -94 85 -103 86
-109 307 -375 367 -440 69 -75 69 -75 34 -75 -23 0 -40 10 -67 39 -20 21 -63
64 -96 95 -167 156 -274 271 -392 421 -80 102 -78 96 -46 125 15 13 31 25 35
25 4 0 40 -39 80 -87z m-142 -121 c118 -159 264 -336 340 -414 42 -43 73 -78
70 -79 -3 0 -25 -2 -50 -2 -37 -2 -48 3 -70 27 -14 15 -124 127 -245 248
l-220 221 50 43 c27 24 52 44 55 44 3 0 34 -40 70 -88z m4491 -164 c221 -147
431 -299 424 -306 -2 -3 -60 -5 -127 -6 l-123 -2 -25 31 c-14 18 -34 44 -45
60 -41 57 -153 183 -242 272 -87 87 -110 114 -80 97 6 -4 105 -70 218 -146z
m-4655 29 c38 -40 114 -128 168 -196 55 -69 109 -134 120 -145 l21 -21 -68 -3
-67 -3 -58 59 c-31 32 -82 78 -112 102 -30 25 -78 67 -107 94 -29 26 -62 55
-74 64 l-23 16 60 53 c32 29 62 53 65 53 4 0 37 -33 75 -73z m-128 -237 c81
-82 132 -140 123 -141 -9 -1 -27 -2 -41 -4 -57 -6 -218 -18 -259 -19 -42 -1
-45 1 -78 49 -31 44 -34 55 -29 95 5 39 14 52 68 102 35 32 66 57 70 58 4 0
70 -63 146 -140z m-360 -143 c8 -20 13 -39 11 -41 -4 -4 -48 -11 -139 -22 -19
-2 -48 -7 -65 -10 -28 -6 -29 -5 -14 10 8 9 51 45 95 80 74 59 80 62 88 42 4
-12 15 -38 24 -59z m5727 -3702 c2 -16 6 -66 10 -109 7 -83 5 -86 -35 -46 -12
12 -138 118 -162 137 l-28 21 51 4 c58 6 97 31 119 75 l15 30 13 -41 c7 -22
15 -54 17 -71z m-5523 29 c61 -60 324 -362 316 -365 -8 -4 -59 -8 -114 -10
-61 -2 -62 -1 -130 53 -72 58 -202 189 -246 248 -23 30 -26 42 -21 79 l6 43
74 -5 c70 -5 77 -7 115 -43z m384 11 c11 -2 67 -58 125 -122 57 -65 130 -145
161 -177 32 -33 57 -61 55 -62 -1 -1 -51 -4 -110 -7 l-109 -4 -189 186 c-104
103 -189 190 -189 194 0 7 219 0 256 -8z m342 -14 c14 -1 130 -116 239 -237
72 -80 89 -104 76 -105 -4 0 -37 -1 -73 -2 l-65 -2 -177 177 -178 177 83 -4
c45 -2 88 -4 95 -4z m422 -30 c8 -10 56 -76 105 -145 50 -70 96 -135 103 -145
12 -17 9 -18 -42 -20 -51 -1 -58 2 -103 42 -74 65 -293 280 -293 287 0 3 48 4
108 3 90 -3 109 -6 122 -22z m3304 -104 c67 -69 136 -140 154 -159 l33 -35
-109 1 -109 1 -50 50 c-95 94 -188 181 -237 220 -44 36 -47 40 -27 45 12 3 67
4 123 3 l101 -2 121 -124z m218 124 c41 -1 53 -7 99 -48 82 -74 239 -241 247
-263 2 -4 -37 -7 -85 -7 l-88 0 -95 85 c-52 47 -130 120 -173 162 l-78 76 63
-2 c35 -1 84 -3 110 -3z m-3099 -154 c81 -82 147 -153 147 -157 0 -5 -44 -7
-97 -7 l-97 2 -100 111 c-56 61 -116 132 -133 157 l-33 45 83 -1 82 -1 148
-149z m2367 125 c50 -38 290 -274 286 -281 -2 -3 -51 -5 -107 -4 l-103 1 -39
44 c-21 23 -85 91 -142 150 -57 59 -99 108 -94 110 5 2 44 4 87 5 69 1 81 -2
112 -25z m-2051 -131 l150 -148 -58 1 c-56 1 -57 1 -161 91 -58 49 -107 92
-110 95 -3 3 -31 29 -62 58 l-57 52 74 0 74 0 150 -149z m357 4 l134 -140 -45
-3 c-41 -3 -53 2 -110 43 -87 62 -179 136 -242 195 l-52 49 91 -2 90 -1 134
-141z m378 -1 l133 -139 -74 -3 c-54 -2 -79 1 -96 13 -32 22 -277 256 -277
264 0 4 41 6 90 5 l91 -2 133 -138z m970 74 c79 -81 196 -212 196 -222 0 -3
-53 -5 -118 -3 l-119 2 -49 40 c-134 109 -267 237 -255 244 5 3 68 7 141 9
l132 2 72 -72z m1610 26 c63 -51 236 -233 236 -248 0 -7 -39 -11 -115 -11
l-114 0 -149 152 -148 151 119 0 119 -1 52 -43z m-2114 -11 c23 -27 83 -90
132 -140 80 -82 88 -93 67 -94 -13 -1 -82 -1 -153 0 l-128 2 -77 57 c-42 31
-114 94 -161 139 l-85 82 181 1 182 0 42 -47z m-3148 -256 c27 -27 48 -50 46
-53 -2 -2 -38 -5 -78 -6 l-74 -3 -22 55 c-13 30 -26 87 -29 125 l-7 70 57 -70
c31 -38 79 -92 107 -118z"/>
<path d="M5126 3809 c-14 -11 -26 -27 -26 -34 0 -26 -13 -29 -205 -41 -122 -7
-144 -13 -173 -45 -27 -29 -32 -64 -57 -394 -3 -44 -8 -96 -10 -115 -17 -134
-25 -513 -13 -575 5 -25 19 -49 38 -66 17 -14 30 -30 30 -35 0 -27 82 -78 140
-87 48 -8 349 -20 495 -20 228 -1 309 15 336 65 24 45 55 210 66 353 12 144 4
651 -13 843 -8 98 -50 141 -134 136 -77 -4 -202 -14 -267 -20 -61 -6 -64 -5
-92 25 -35 37 -76 41 -115 10z m385 -376 c0 -70 2 -175 3 -233 1 -58 1 -108
-1 -112 -2 -3 -18 -2 -36 3 -37 11 -134 13 -191 4 l-39 -7 8 194 c4 106 8 208
9 226 0 17 1 32 1 32 0 1 29 4 65 7 36 3 66 6 67 7 1 0 26 2 57 4 l56 3 1
-128z m-430 84 c2 -35 0 -439 -3 -442 -2 -2 -28 -6 -58 -9 -30 -4 -77 -9 -103
-12 l-49 -6 6 119 c4 65 9 134 11 153 2 19 7 69 11 110 3 41 10 78 15 81 5 3
30 6 56 8 26 1 48 3 49 4 9 9 64 4 65 -6z m425 -699 c-10 -210 -9 -201 -36
-208 -14 -4 -62 -10 -107 -13 l-83 -6 -1 27 c-1 15 -3 41 -4 57 -2 17 -6 66
-10 110 -3 44 -8 95 -9 113 l-4 32 77 1 c84 1 120 5 154 19 12 5 24 9 26 9 2
1 1 -63 -3 -141z m-415 80 c1 -68 25 -202 46 -262 7 -22 10 -43 6 -47 -5 -4
-77 -10 -162 -14 l-154 -7 7 34 c3 18 8 74 12 123 3 50 7 106 9 125 1 19 3 45
4 58 1 21 4 22 116 22 l115 0 1 -32z"/>
<path d="M1670 3665 c-195 -28 -303 -76 -405 -183 -97 -101 -156 -290 -159
-507 -1 -141 4 -186 33 -285 34 -120 72 -176 127 -186 16 -3 38 -16 49 -30 16
-19 35 -26 90 -33 141 -20 245 -29 382 -36 50 -3 106 -7 125 -9 18 -2 74 -7
123 -11 83 -6 92 -5 117 15 15 11 32 38 38 58 17 66 25 230 24 517 0 230 -5
310 -23 450 -25 190 -34 212 -97 233 -52 18 -316 22 -424 7z m291 -223 c0 -4
2 -16 4 -27 10 -62 16 -131 21 -215 3 -52 7 -101 9 -107 3 -10 -34 -13 -166
-13 -119 0 -168 3 -164 11 4 6 8 88 9 182 l1 172 55 3 c30 1 61 4 69 5 28 4
161 -5 162 -11z m-465 -202 l-1 -151 -84 2 -83 3 6 49 c9 66 48 150 88 190 26
26 61 53 74 57 1 0 1 -68 0 -150z m-77 -286 c41 -8 77 -17 81 -19 3 -2 7 -34
8 -72 3 -102 12 -162 33 -225 10 -32 19 -59 19 -61 0 -3 -17 -3 -37 -1 -21 2
-67 5 -102 7 l-64 4 -3 99 c-1 95 -7 165 -20 247 -3 20 -2 37 3 37 4 0 41 -7
82 -16z m341 -49 c47 -4 120 -8 162 -8 l77 0 -5 -155 c-2 -86 -6 -158 -9 -160
-2 -3 -78 -7 -168 -9 l-164 -5 -6 23 c-8 29 -1 305 8 319 4 6 9 8 13 6 4 -2
45 -7 92 -11z"/>
<path d="M3650 2204 c-45 -18 -95 -48 -111 -67 -29 -34 -87 -158 -102 -217
-17 -66 -14 -162 7 -212 20 -47 76 -104 123 -123 41 -17 121 -22 173 -11 58
13 134 64 169 115 109 160 70 408 -76 489 -41 23 -151 38 -183 26z m114 -194
c12 -12 20 -38 23 -83 5 -54 2 -73 -16 -109 -40 -81 -113 -106 -158 -53 -21
24 -24 36 -22 99 1 39 9 90 16 113 13 38 19 43 56 51 49 11 75 7 101 -18z"/>
</g>
</svg>
